Coordinates
version=1
nRows=13
nColumns=38
inDegrees=no

Units are S.I. units (second, meters, Newtons, ...)
If the header above contains a line with 'inDegrees', this indicates whether rotational values are in degrees (yes) or radians (no).

endheader
time	pelvis_tilt	pelvis_list	pelvis_rotation	pelvis_tx	pelvis_ty	pelvis_tz	hip_flexion_r	hip_adduction_r	hip_rotation_r	knee_angle_r	ankle_angle_r	subtalar_angle_r	mtp_angle_r	hip_flexion_l	hip_adduction_l	hip_rotation_l	knee_angle_l	ankle_angle_l	subtalar_angle_l	mtp_angle_l	lumbar_extension	lumbar_bending	lumbar_rotation	arm_flex_r	arm_add_r	arm_rot_r	elbow_flex_r	pro_sup_r	wrist_flex_r	wrist_dev_r	arm_flex_l	arm_add_l	arm_rot_l	elbow_flex_l	pro_sup_l	wrist_flex_l	wrist_dev_l
14.49	-2.99978	1.44598	-1.88332	0.748523	-1.2019	0.931223	-0.314765	0.0538042	-0.379744	0.0342371	0.523599	0	0	0.26705	-0.0761421	-0.389284	0.32998	-0.087563	0	0	-0.411951	-0.0735824	0.247064	0.189546	-0.400147	-0.586138	2.1584	0.0542647	0	0	-0.0598074	-0.31474	-0.0861254	2.11251	0.789898	0	0
14.5	3.00029	1.39376	-1.62489	0.752091	-1.20543	0.938795	-0.402414	0.10064	-0.281548	0	0.523599	0	0	0.202358	-0.126141	-0.403307	0.329397	-0.0953422	0	0	-0.487576	-0.051033	0.284165	0.201064	-0.416472	-0.624114	2.17167	0.0542647	0	0	-0.0544306	-0.305487	-0.0853748	2.11862	0.790978	0	0
14.51	2.95996	1.37065	-1.58054	0.751228	-1.20612	0.941272	-0.427995	0.113325	-0.271479	0	0.523599	0	0	0.182171	-0.134566	-0.408235	0.3343	-0.0956111	0	0	-0.517932	-0.0348163	0.278735	0.0408486	-0.465759	-0.00341558	2.05539	1.10446	0	0	-0.0711835	-0.299065	-0.101006	2.12379	0.784494	0	0
14.52	3.01227	1.41787	-1.62974	0.755031	-1.20053	0.940762	-0.396165	0.117178	-0.298217	0	0.523599	0	0	0.226159	-0.128855	-0.422083	0.338196	-0.104485	0	0	-0.432343	-0.0688091	0.237222	0.0239246	-0.402164	-0.42639	2.14554	1.10446	0	0	-0.131767	-0.302974	-0.133494	2.13627	0.80714	0	0
14.53	-2.73792	1.51315	-2.15177	0.751634	-1.19638	0.924854	-0.265414	0.0687586	-0.279571	0.010713	0.523599	0	0	0.352289	-0.095262	-0.398804	0.359375	-0.0786738	0	0	-0.304076	-0.0857813	0.231162	-0.00109257	-0.400653	-0.594852	2.23428	1.10446	0	0	-0.167665	-0.305536	-0.128392	2.1433	0.816742	0	0
14.54	3.10338	1.43423	-1.70975	0.749634	-1.1997	0.932409	-0.364518	0.0905998	-0.323295	0	0.523599	0	0	0.269369	-0.113233	-0.386256	0.371351	-0.0808561	0	0	-0.447085	-0.0591721	0.31449	0.0861133	-0.361815	-0.597031	2.618	1.10446	0	0	-0.0842456	-0.303573	-0.0415604	2.13173	0.814578	0	0
14.55	-2.8008	1.45722	-2.05819	0.748634	-1.19359	0.931747	-0.28217	-0.0324194	-0.697873	0.226219	0.523599	0	0	0.290981	-0.05326	-0.361229	0.334116	-0.114104	0	0	-0.367469	-0.102391	0.196631	-0.033353	-0.400958	-0.635524	2.618	1.10446	0	0	-0.187167	-0.304251	-0.13544	2.16086	0.818892	0	0
14.56	-2.83671	1.44454	-2.03517	0.753004	-1.19706	0.935735	-0.335002	0.0631054	-0.371607	0	0.523599	0	0	0.288143	-0.068005	-0.374642	0.354817	-0.135752	0	0	-0.390597	-0.112998	0.193375	-0.135462	-0.39717	-0.159454	2.11333	1.5708	0	0	-0.199477	-0.304491	-0.158447	2.16682	0.813021	0	0
14.57	-2.90877	1.47183	-1.99307	0.755524	-1.19191	0.932154	-0.311915	0.0553892	-0.390405	0.0361046	0.523599	0	0	0.307932	-0.102226	-0.426638	0.375577	-0.102198	0	0	-0.35077	-0.102126	0.238816	-0.0968061	-0.393195	-0.512203	2.50901	1.5708	0	0	-0.223609	-0.296434	-0.146959	2.16741	0.815251	0	0
14.58	-2.84221	1.44557	-2.04884	0.753662	-1.18994	0.933259	-0.300865	-0.0298114	-0.646798	0.209595	0.523599	0	0	0.283627	-0.0767116	-0.423403	0.37095	-0.106337	0	0	-0.373165	-0.113915	0.215161	-0.194447	-0.451978	-0.132722	2.06597	1.5708	0	0	-0.245305	-0.296626	-0.253884	2.41657	0.815251	0	0
14.59	-2.6511	1.49267	-2.25092	0.754551	-1.19192	0.928693	-0.22835	0.0432404	-0.410486	0.0955699	0.523599	0	0	0.348703	-0.094827	-0.395517	0.388279	-0.109058	0	0	-0.323752	-0.110422	0.240094	-0.133013	-0.393522	-0.529267	2.618	1.5708	0	0	-0.250649	-0.290213	-0.151737	2.17998	0.808248	0	0
14.6	-2.39931	1.49686	-2.50222	0.755039	-1.19024	0.924916	-0.252898	0.0354163	-0.369842	0.0600098	0.523599	0	0	0.367279	-0.0837736	-0.411466	0.397559	-0.0965837	0	0	-0.302713	-0.124387	0.237903	-0.153924	-0.389301	-0.543788	2.618	1.5708	0	0	-0.272831	-0.298309	-0.251423	2.43519	0.808248	0	0
14.61	-2.5073	1.51824	-2.39177	0.754221	-1.18988	0.924311	-0.206678	0.0579598	-0.372809	0.0826276	0.523599	0	0	0.395258	-0.118799	-0.413388	0.434144	-0.0912629	0	0	-0.29537	-0.099223	0.242127	-0.170974	-0.395341	-0.552861	2.618	1.5708	0	0	-0.286707	-0.289344	-0.250305	2.43328	0.808248	0	0
